<?xml version="1.0" standalone="no"?>
<!DOCTYPE svg PUBLIC "-//W3C//DTD SVG 20010904//EN"
 "http://www.w3.org/TR/2001/REC-SVG-20010904/DTD/svg10.dtd">
<svg version="1.0" xmlns="http://www.w3.org/2000/svg"
 width="260.000000pt" height="260.000000pt" viewBox="0 0 260.000000 260.000000"
 preserveAspectRatio="xMidYMid meet">
<metadata>
Created by potrace 1.14, written by Peter Selinger 2001-2017
</metadata>
<g transform="translate(0.000000,260.000000) scale(0.100000,-0.100000)"
fill="#000000" stroke="none">
<path d="M320 2520 l0 -80 -80 0 -80 0 0 -245 0 -245 80 0 80 0 0 -80 0 -80
-80 0 -80 0 0 -80 0 -80 -80 0 -80 0 0 -650 0 -650 80 0 80 0 0 -85 0 -85 80
0 80 0 0 -80 0 -80 570 0 570 0 0 80 0 80 -570 0 -570 0 0 85 0 85 -80 0 -80
0 0 650 0 650 165 0 165 0 0 80 0 80 160 0 160 0 0 -80 0 -80 165 0 165 0 0
-85 0 -85 -325 0 -325 0 0 -80 0 -80 -85 0 -85 0 0 -325 0 -325 85 0 85 0 0
-80 0 -80 405 0 405 0 0 -80 0 -80 160 0 160 0 0 160 0 160 245 0 245 0 0 -80
0 -80 -160 0 -160 0 0 -245 0 -245 80 0 80 0 0 165 0 165 160 0 160 0 0 160 0
160 165 0 165 0 0 245 0 245 -80 0 -80 0 0 80 0 80 -85 0 -85 0 0 80 0 80 165
0 165 0 0 245 0 245 -80 0 -80 0 0 80 0 80 -165 0 -165 0 0 85 0 85 -80 0 -80
0 0 80 0 80 -80 0 -80 0 0 80 0 80 -85 0 -85 0 0 -80 0 -80 -160 0 -160 0 0
-80 0 -80 325 0 325 0 0 -85 0 -85 -325 0 -325 0 0 -80 0 -80 -80 0 -80 0 0
165 0 165 -85 0 -85 0 0 80 0 80 -80 0 -80 0 0 80 0 80 -245 0 -245 0 0 -80z
m330 -160 l0 -80 80 0 80 0 0 -85 0 -85 80 0 80 0 0 -160 0 -160 -80 0 -80 0
0 80 0 80 -160 0 -160 0 0 80 0 80 -85 0 -85 0 0 165 0 165 165 0 165 0 0 -80z
m1620 -490 l0 -80 85 0 85 0 0 -80 0 -80 -570 0 -570 0 0 160 0 160 485 0 485
0 0 -80z m-160 -490 l0 -80 80 0 80 0 0 -80 0 -80 85 0 85 0 0 -165 0 -165
-570 0 -570 0 0 325 0 325 405 0 405 0 0 -80z m-970 -405 l0 -325 -325 0 -325
0 0 80 0 80 240 0 240 0 0 85 0 85 -160 0 -160 0 0 80 0 80 160 0 160 0 0 80
0 80 85 0 85 0 0 -325z"/>
<path d="M1620 1140 l0 -160 85 0 85 0 0 160 0 160 -85 0 -85 0 0 -160z"/>
</g>
</svg>
